<svg width="32" height="32" viewBox="0 0 32 32" fill="none" xmlns="http://www.w3.org/2000/svg">
<rect width="32" height="32" rx="16" fill="#F2542D"/>
<path d="M20.1915 6H11.8115C8.17146 6 6.00146 8.17 6.00146 11.81V20.18C6.00146 23.83 8.17146 26 11.8115 26H20.1815C23.8215 26 25.9915 23.83 25.9915 20.19V11.81C26.0015 8.17 23.8315 6 20.1915 6ZM16.0015 19.88C13.8615 19.88 12.1215 18.14 12.1215 16C12.1215 13.86 13.8615 12.12 16.0015 12.12C18.1415 12.12 19.8815 13.86 19.8815 16C19.8815 18.14 18.1415 19.88 16.0015 19.88ZM21.9215 10.88C21.8715 11 21.8015 11.11 21.7115 11.21C21.6115 11.3 21.5015 11.37 21.3815 11.42C21.2615 11.47 21.1315 11.5 21.0015 11.5C20.7315 11.5 20.4815 11.4 20.2915 11.21C20.2015 11.11 20.1315 11 20.0815 10.88C20.0315 10.76 20.0015 10.63 20.0015 10.5C20.0015 10.37 20.0315 10.24 20.0815 10.12C20.1315 9.99 20.2015 9.89 20.2915 9.79C20.5215 9.56 20.8715 9.45 21.1915 9.52C21.2615 9.53 21.3215 9.55 21.3815 9.58C21.4415 9.6 21.5015 9.63 21.5615 9.67C21.6115 9.7 21.6615 9.75 21.7115 9.79C21.8015 9.89 21.8715 9.99 21.9215 10.12C21.9715 10.24 22.0015 10.37 22.0015 10.5C22.0015 10.63 21.9715 10.76 21.9215 10.88Z" fill="white"/>
</svg>
