<svg width="32" height="32" viewBox="0 0 32 32" fill="none" xmlns="http://www.w3.org/2000/svg">
<rect width="32" height="32" rx="16" fill="#F2542D"/>
<path d="M21.0015 8H11.0015C8.00146 8 6.00146 10 6.00146 13V19C6.00146 22 8.00146 24 11.0015 24H21.0015C24.0015 24 26.0015 22 26.0015 19V13C26.0015 10 24.0015 8 21.0015 8ZM17.8915 17.03L15.4214 18.51C14.4214 19.11 13.6014 18.65 13.6014 17.48V14.51C13.6014 13.34 14.4214 12.88 15.4214 13.48L17.8915 14.96C18.8415 15.54 18.8415 16.46 17.8915 17.03Z" fill="white"/>
</svg>
