<svg width="28" height="28" viewBox="0 0 28 28" fill="none" xmlns="http://www.w3.org/2000/svg">
<path fill-rule="evenodd" clip-rule="evenodd" d="M24.2216 1.75V7.90668C24.5174 7.96118 24.8003 8.07616 25.0523 8.24588C25.4153 8.49046 25.6975 8.83753 25.8639 9.24258C26.0303 9.64758 26.0738 10.0929 25.989 10.5225C25.9043 10.9522 25.6949 11.3475 25.3866 11.6584C25.0782 11.9692 24.6847 12.1816 24.2555 12.2676C23.8263 12.3537 23.3814 12.3095 22.9774 12.1408C22.5734 11.9721 22.229 11.6868 21.9871 11.3218C21.7453 10.9568 21.6165 10.5283 21.6165 10.0904H22.929C22.929 10.2711 22.9821 10.4473 23.0812 10.5967C23.1801 10.746 23.3202 10.8616 23.4832 10.9296C23.646 10.9977 23.8249 11.0154 23.9974 10.9808C24.17 10.9462 24.3293 10.8606 24.4548 10.7341C24.5803 10.6075 24.6664 10.4456 24.7014 10.2685C24.7363 10.0914 24.7183 9.90787 24.6499 9.74137C24.5815 9.57492 24.4661 9.43351 24.319 9.33442C24.1719 9.23537 23.9997 9.18285 23.8239 9.18285H23.5505L22.9091 8.53622V1.75H24.2216ZM3.76908 2.1363H4.92975L5.11094 2.28645L5.11265 2.28784L5.12394 2.29692C5.13491 2.30567 5.15271 2.31967 5.17695 2.33818C5.22548 2.37524 5.2996 2.43018 5.39639 2.49709C5.59042 2.63123 5.87288 2.81163 6.22035 2.99205C6.90618 3.34816 7.80498 3.68331 8.75766 3.69952C9.7805 3.35374 10.8527 3.17778 11.9322 3.17886H12.7591C15.6656 3.17886 18.2589 4.55962 19.9548 6.83076L20.0852 7.00542V7.97794L19.6106 8.11465C18.7896 8.35115 18.009 8.77182 17.4224 9.14531C17.3464 9.1937 17.2741 9.24101 17.2059 9.28669C17.6843 9.42764 18.3664 9.58829 19.2525 9.69996L19.8267 9.77233V10.882L19.6364 11.0738C18.5551 12.164 17.5279 12.8771 16.4012 13.3095C15.2783 13.7404 14.1034 13.8743 12.7591 13.8743H11.9318C10.0842 13.8743 8.4517 15.601 8.4517 17.9096C8.4517 20.0658 9.87594 21.7144 11.5694 21.9226C12.8083 19.9275 14.9755 18.2959 17.5159 18.2959H18.1722V19.565L17.8804 19.7585L17.8794 19.7591L17.8786 19.7597L17.8697 19.7659C17.8598 19.7728 17.8435 19.7844 17.8215 19.8006C17.7776 19.8331 17.7117 19.8837 17.6311 19.9514C17.469 20.0875 17.2523 20.2889 17.0366 20.5464C16.5994 21.0684 16.2074 21.7705 16.2074 22.6011C16.2074 23.4316 16.5994 24.1338 17.0366 24.6557C17.2523 24.9133 17.469 25.1146 17.6311 25.2507C17.7117 25.3184 17.7776 25.3691 17.8215 25.4015C17.8435 25.4178 17.8598 25.4294 17.8697 25.4363L17.8786 25.4425L17.8794 25.443L17.8804 25.4436L18.1722 25.6372V26.9062H17.5159C14.963 26.9062 12.7869 25.2585 11.5511 23.25C9.04542 23.1535 6.66315 22.1077 4.88498 20.315C3.01714 18.4319 1.96875 15.8789 1.96875 13.2181C1.96875 9.52233 2.36155 6.86669 2.76086 5.12219C2.96049 4.25008 3.1616 3.60626 3.31574 3.17459C3.3928 2.95878 3.45809 2.79608 3.50554 2.68446C3.52926 2.62866 3.54852 2.58563 3.56255 2.55513C3.56957 2.53989 3.57528 2.52777 3.57959 2.51875L3.58499 2.50755L3.58688 2.50369L3.58762 2.50219C3.58762 2.50219 3.58822 2.50098 4.17614 2.79255L3.58822 2.50098L3.76908 2.1363ZM4.58299 3.52987C4.57291 3.55728 4.56251 3.58597 4.5518 3.61596C4.4151 3.99879 4.22844 4.59301 4.04027 5.41504C3.89898 6.03233 3.75677 6.77842 3.63425 7.66028C3.69061 7.57481 3.74834 7.49012 3.80741 7.40623C4.59465 6.28837 5.59625 5.35076 6.74564 4.6443C6.32257 4.49872 5.9412 4.32599 5.61552 4.15689C5.21004 3.94635 4.88012 3.73579 4.65002 3.57671C4.62666 3.56057 4.60431 3.54494 4.58299 3.52987ZM3.28125 13.2181C3.28125 15.5343 4.19393 17.7545 5.81683 19.3907C6.46933 20.0485 7.21512 20.5903 8.02272 21.003C7.46291 20.1198 7.1392 19.0458 7.1392 17.9096C7.1392 15.0366 9.20871 12.5618 11.9318 12.5618H12.7591C14.0197 12.5618 15.0163 12.4351 15.9309 12.0841C16.6132 11.8223 17.2761 11.4254 17.9807 10.8243C17.4352 10.7165 16.9904 10.5966 16.6465 10.4883C16.3701 10.4012 16.159 10.3216 16.0133 10.262C15.9405 10.2321 15.8841 10.2073 15.844 10.189C15.8239 10.1798 15.808 10.1723 15.7961 10.1666L15.7814 10.1594L15.7763 10.1569L15.7744 10.1559L15.7735 10.1555C15.7735 10.1555 15.7728 10.1552 16.0682 9.56915L15.7735 10.1555L15.4119 9.97325V9.00274L15.646 8.80606L16.0682 9.30851C15.646 8.80606 15.646 8.80606 15.646 8.80606L15.6471 8.80519L15.6487 8.80385L15.6536 8.79977L15.6701 8.78616C15.684 8.77473 15.7038 8.75866 15.7291 8.73847C15.7797 8.6981 15.8525 8.64117 15.945 8.57181C16.1296 8.43328 16.3939 8.24421 16.7175 8.0382C17.1918 7.73617 17.8075 7.38867 18.4958 7.11295C17.0474 5.46182 15.0119 4.49136 12.7591 4.49136H11.9318C10.9625 4.49036 9.99911 4.65399 9.08348 4.97546C7.38947 5.57203 5.92045 6.68527 4.88051 8.16195C3.84048 9.63877 3.28133 11.4058 3.28125 13.2181ZM15.8647 25.2912C15.3722 24.6448 14.8949 23.7291 14.8949 22.6011C14.8949 21.4731 15.3722 20.5573 15.8647 19.9109C14.575 20.3873 13.4504 21.3846 12.6928 22.6011C13.4504 23.8175 14.575 24.8148 15.8647 25.2912Z" fill="#F0F0F0"/>
<path fill-rule="evenodd" clip-rule="evenodd" d="M17.827 8.44468C18.4095 8.22373 18.8124 8.07092 18.8124 6.99991C18.8124 6.17221 15.7499 4.37491 13.9999 4.37491C13.5418 3.80337 11.6235 4.04832 10.1619 4.23494C9.5773 4.30959 9.06575 4.37491 8.74994 4.37491C6.81695 4.37491 2.625 10.7544 2.625 12.6874C2.625 13.015 5.20533 20.8006 6.5625 20.9999C6.87509 21.0458 7.0735 21.1321 7.26646 21.2159C7.53151 21.3311 7.78627 21.4418 8.3125 21.4374C7.4375 17.9374 8.89751 13.6716 9.625 13.5624C10.2258 13.4722 11.0391 13.3619 11.9018 13.2448C13.2795 13.0579 14.7833 12.8538 15.75 12.6874C16.971 12.4773 17.418 11.9835 17.7907 11.572C18.0728 11.2604 18.3122 10.996 18.8124 10.9374C19.8725 10.8134 18.121 10.2764 16.9874 9.92886C16.4121 9.75246 15.9959 9.62488 16.1874 9.62488C16.7728 8.84451 17.3581 8.62252 17.827 8.44468ZM14.6545 5.91984H13.3438V8.00138H14.6545V5.91984Z" fill="#F0F0F0"/>
</svg>
