<svg width="28" height="28" viewBox="0 0 28 28" fill="none" xmlns="http://www.w3.org/2000/svg">
<path d="M27.8772 21.4288L21.9097 11.3575C21.7558 11.0951 21.5356 10.8778 21.2713 10.7273C21.007 10.5768 20.7077 10.4984 20.4036 10.5C20.0995 10.4984 19.8005 10.5768 19.5363 10.7273C19.2721 10.8778 19.0522 11.0952 18.8986 11.3575L17.1879 14.2439C17.1481 14.3113 17.1271 14.3882 17.1271 14.4665C17.1271 14.5448 17.1481 14.6217 17.1879 14.6891L20.1192 19.6623C20.2305 19.847 20.2709 20.0659 20.2329 20.2782C20.1949 20.4905 20.081 20.6817 19.9125 20.8163C19.8143 20.8925 19.7009 20.947 19.58 20.976C19.4591 21.005 19.3334 21.0079 19.2113 20.9845C19.0891 20.9611 18.9734 20.912 18.8718 20.8403C18.7701 20.7687 18.6849 20.6762 18.6218 20.5691L11.1329 7.86188C10.9784 7.59923 10.7579 7.38148 10.4934 7.2302C10.2289 7.07892 9.9294 6.99934 9.62466 6.99934C9.31992 6.99934 9.02045 7.07892 8.75591 7.2302C8.49137 7.38148 8.27092 7.59923 8.11638 7.86188L0.121066 21.4309C0.0245966 21.5931 -0.0168751 21.7821 0.00283559 21.9697C0.0225463 22.1574 0.102384 22.3336 0.230441 22.4722C0.316671 22.5624 0.420703 22.6336 0.535935 22.6814C0.651166 22.7293 0.775081 22.7526 0.899816 22.75H27.0995C27.2237 22.7516 27.3469 22.7277 27.4615 22.6797C27.5761 22.6317 27.6796 22.5607 27.7656 22.4711C27.8942 22.3327 27.9746 22.1564 27.9947 21.9685C28.0149 21.7806 27.9736 21.5912 27.8772 21.4288ZM7.04669 13.125L9.62466 8.75L12.2026 13.125H7.04669ZM15.3122 5.6875C15.3122 5.16833 15.4661 4.66081 15.7546 4.22913C16.043 3.79745 16.453 3.461 16.9326 3.26232C17.4123 3.06364 17.9401 3.01165 18.4493 3.11294C18.9585 3.21423 19.4262 3.46423 19.7933 3.83135C20.1604 4.19846 20.4104 4.66619 20.5117 5.17539C20.613 5.68459 20.561 6.21239 20.3623 6.69205C20.1637 7.1717 19.8272 7.58167 19.3955 7.87011C18.9639 8.15855 18.4563 8.3125 17.9372 8.3125C17.241 8.3125 16.5733 8.03594 16.081 7.54366C15.5887 7.05137 15.3122 6.38369 15.3122 5.6875Z" fill="#F0F0F0"/>
</svg>
