<svg width="28" height="28" viewBox="0 0 28 28" fill="none" xmlns="http://www.w3.org/2000/svg">
<path d="M25.375 13.125H24.4628C24.2528 10.6525 23.1753 8.33394 21.4207 6.57934C19.6661 4.82473 17.3475 3.74716 14.875 3.53719V2.625C14.875 2.39294 14.7828 2.17038 14.6187 2.00628C14.4546 1.84219 14.2321 1.75 14 1.75C13.7679 1.75 13.5454 1.84219 13.3813 2.00628C13.2172 2.17038 13.125 2.39294 13.125 2.625V3.53719C10.6525 3.74716 8.33394 4.82473 6.57934 6.57934C4.82473 8.33394 3.74716 10.6525 3.53719 13.125H2.625C2.39294 13.125 2.17038 13.2172 2.00628 13.3813C1.84219 13.5454 1.75 13.7679 1.75 14C1.75 14.2321 1.84219 14.4546 2.00628 14.6187C2.17038 14.7828 2.39294 14.875 2.625 14.875H3.53719C3.74716 17.3475 4.82473 19.6661 6.57934 21.4207C8.33394 23.1753 10.6525 24.2528 13.125 24.4628V25.375C13.125 25.6071 13.2172 25.8296 13.3813 25.9937C13.5454 26.1578 13.7679 26.25 14 26.25C14.2321 26.25 14.4546 26.1578 14.6187 25.9937C14.7828 25.8296 14.875 25.6071 14.875 25.375V24.4628C17.3475 24.2528 19.6661 23.1753 21.4207 21.4207C23.1753 19.6661 24.2528 17.3475 24.4628 14.875H25.375C25.6071 14.875 25.8296 14.7828 25.9937 14.6187C26.1578 14.4546 26.25 14.2321 26.25 14C26.25 13.7679 26.1578 13.5454 25.9937 13.3813C25.8296 13.2172 25.6071 13.125 25.375 13.125ZM21.875 14.875H22.7063C22.5014 16.8822 21.6106 18.7573 20.1839 20.1839C18.7573 21.6106 16.8822 22.5014 14.875 22.7063V21.875C14.875 21.6429 14.7828 21.4204 14.6187 21.2563C14.4546 21.0922 14.2321 21 14 21C13.7679 21 13.5454 21.0922 13.3813 21.2563C13.2172 21.4204 13.125 21.6429 13.125 21.875V22.7063C11.1178 22.5014 9.24274 21.6106 7.81609 20.1839C6.38944 18.7573 5.49855 16.8822 5.29375 14.875H6.125C6.35706 14.875 6.57962 14.7828 6.74372 14.6187C6.90781 14.4546 7 14.2321 7 14C7 13.7679 6.90781 13.5454 6.74372 13.3813C6.57962 13.2172 6.35706 13.125 6.125 13.125H5.29375C5.49855 11.1178 6.38944 9.24274 7.81609 7.81609C9.24274 6.38944 11.1178 5.49855 13.125 5.29375V6.125C13.125 6.35706 13.2172 6.57962 13.3813 6.74372C13.5454 6.90781 13.7679 7 14 7C14.2321 7 14.4546 6.90781 14.6187 6.74372C14.7828 6.57962 14.875 6.35706 14.875 6.125V5.29375C16.8822 5.49855 18.7573 6.38944 20.1839 7.81609C21.6106 9.24274 22.5014 11.1178 22.7063 13.125H21.875C21.6429 13.125 21.4204 13.2172 21.2563 13.3813C21.0922 13.5454 21 13.7679 21 14C21 14.2321 21.0922 14.4546 21.2563 14.6187C21.4204 14.7828 21.6429 14.875 21.875 14.875ZM18.375 14C18.375 14.8653 18.1184 15.7112 17.6377 16.4306C17.1569 17.1501 16.4737 17.7108 15.6742 18.042C14.8748 18.3731 13.9951 18.4597 13.1465 18.2909C12.2978 18.1221 11.5183 17.7054 10.9064 17.0936C10.2946 16.4817 9.87787 15.7022 9.70906 14.8535C9.54025 14.0049 9.62689 13.1252 9.95803 12.3258C10.2892 11.5263 10.8499 10.8431 11.5694 10.3623C12.2888 9.88159 13.1347 9.625 14 9.625C15.1603 9.625 16.2731 10.0859 17.0936 10.9064C17.9141 11.7269 18.375 12.8397 18.375 14Z" fill="#F0F0F0"/>
</svg>
