<svg width="28" height="28" viewBox="0 0 28 28" fill="none" xmlns="http://www.w3.org/2000/svg">
<path d="M23.5653 8.00532V1.75M22.2727 10.0904C22.2727 10.3997 22.3637 10.7021 22.5341 10.9592C22.7046 11.2164 22.9468 11.4169 23.2303 11.5352C23.5137 11.6536 23.8256 11.6845 24.1265 11.6242C24.4274 11.5639 24.7038 11.4149 24.9207 11.1962C25.1376 10.9775 25.2853 10.6989 25.3452 10.3955C25.405 10.0922 25.3743 9.77773 25.2569 9.49197C25.1395 9.20622 24.9407 8.96198 24.6856 8.79015C24.4819 8.65291 24.2496 8.56678 24.008 8.53766C23.8907 8.52352 23.7771 8.47941 23.6939 8.39553V8.39553C23.6115 8.31253 23.5653 8.20036 23.5653 8.08346V7.48404M11.9318 22.6011C9.64648 22.6011 7.79545 20.5003 7.79545 17.9096C7.79545 15.3188 9.64648 13.2181 11.9318 13.2181H12.7591C15.3391 13.2181 17.069 12.7067 19.1113 10.671C19.1489 10.6335 19.1705 10.5819 19.1705 10.5287V10.5287C19.1705 10.4272 19.0947 10.3417 18.9941 10.3279C17.4618 10.1181 16.5313 9.76969 16.2027 9.62991C16.119 9.5943 16.0682 9.51176 16.0682 9.42078V9.42078C16.0682 9.34961 16.0987 9.28288 16.1545 9.23867C16.4911 8.97188 17.7704 8.0084 19.2559 7.53647C19.358 7.50405 19.429 7.4103 19.429 7.30321V7.30321C19.429 7.2514 19.4122 7.20082 19.3809 7.15958C17.8024 5.0845 15.4216 3.83511 12.7591 3.83511H11.9318C10.888 3.83404 9.85148 4.01026 8.86574 4.35638M11.9318 22.6011C9.4635 22.6011 7.09627 21.6125 5.3509 19.8529C3.60554 18.0932 2.625 15.7066 2.625 13.2181M11.9318 22.6011C13.02 20.6358 15.0317 19.0302 17.3462 18.9549C17.4398 18.9518 17.5159 19.0281 17.5159 19.1217V19.1217C17.5159 19.1786 17.4884 19.2311 17.4426 19.2647C17.0861 19.526 15.5511 20.7581 15.5511 22.6011C15.5511 24.444 17.0861 25.6761 17.4426 25.9375C17.4884 25.9711 17.5159 26.0235 17.5159 26.0804V26.0804C17.5159 26.1741 17.4398 26.2503 17.3462 26.2472C15.0317 26.172 13.02 24.5663 11.9318 22.6011ZM8.86574 4.35638H8.82955C6.95434 4.35638 5.33073 3.26933 4.84268 2.90786C4.74397 2.83476 4.62597 2.79255 4.50314 2.79255V2.79255C4.30284 2.79255 4.12197 2.90471 4.04811 3.09089C3.67668 4.02722 2.625 7.20894 2.625 13.2181M8.86574 4.35638C7.04233 4.99847 5.46211 6.19635 4.34396 7.78409C3.22581 9.37183 2.62509 11.2708 2.625 13.2181M14 8.00532V5.92021" stroke="#562C2C" stroke-width="1.25"/>
</svg>
