<svg width="28" height="28" viewBox="0 0 28 28" fill="none" xmlns="http://www.w3.org/2000/svg">
<path d="M17.9376 8.75C18.5433 8.75 19.1354 8.57039 19.6391 8.23388C20.1427 7.89737 20.5352 7.41907 20.767 6.85947C20.9988 6.29987 21.0595 5.6841 20.9413 5.09004C20.8231 4.49597 20.5315 3.95029 20.1032 3.52199C19.6749 3.09369 19.1292 2.80201 18.5351 2.68385C17.941 2.56568 17.3253 2.62633 16.7657 2.85812C16.2061 3.08991 15.7278 3.48244 15.3913 3.98607C15.0547 4.48969 14.8751 5.0818 14.8751 5.6875C14.8751 6.49973 15.1978 7.27869 15.7721 7.85302C16.3465 8.42735 17.1254 8.75 17.9376 8.75ZM17.9376 4.375C18.1972 4.375 18.451 4.45198 18.6668 4.5962C18.8827 4.74042 19.0509 4.9454 19.1502 5.18523C19.2496 5.42506 19.2756 5.68896 19.2249 5.94356C19.1743 6.19816 19.0493 6.43202 18.8657 6.61558C18.6822 6.79914 18.4483 6.92414 18.1937 6.97478C17.9391 7.02542 17.6752 6.99943 17.4354 6.90009C17.1955 6.80075 16.9906 6.63253 16.8463 6.41669C16.7021 6.20085 16.6251 5.94709 16.6251 5.6875C16.6251 5.3394 16.7634 5.00557 17.0096 4.75942C17.2557 4.51328 17.5895 4.375 17.9376 4.375ZM27.8776 21.4288L21.9101 11.3575C21.7562 11.0951 21.5361 10.8778 21.2718 10.7273C21.0074 10.5768 20.7082 10.4984 20.404 10.5C20.1 10.4984 19.8009 10.5768 19.5368 10.7273C19.2726 10.8778 19.0527 11.0952 18.899 11.3575L16.0378 16.1875L11.1334 7.86406C10.9789 7.60141 10.7584 7.38367 10.4939 7.23239C10.2293 7.0811 9.92988 7.00152 9.62514 7.00152C9.32039 7.00152 9.02093 7.0811 8.75639 7.23239C8.49185 7.38367 8.2714 7.60141 8.11686 7.86406L0.121543 21.4309C0.043282 21.5638 0.00152705 21.715 0.000507414 21.8692C-0.000512222 22.0234 0.0392397 22.1752 0.115737 22.3091C0.192234 22.443 0.302759 22.5543 0.436117 22.6317C0.569474 22.7091 0.720928 22.7499 0.875137 22.75H27.1251C27.2796 22.75 27.4313 22.7091 27.5648 22.6314C27.6983 22.5538 27.8089 22.4422 27.8853 22.308C27.9617 22.1738 28.0013 22.0218 28 21.8674C27.9986 21.7129 27.9564 21.5616 27.8776 21.4288ZM9.62514 8.75L12.2031 13.125H7.04717L9.62514 8.75ZM2.40639 21L6.01576 14.875H13.2345L15.2842 18.3531L16.8439 21H2.40639ZM18.875 21L17.0528 17.9069L20.404 12.25L25.5939 21H18.875Z" fill="#562C2C"/>
</svg>
